<?xml version="1.0" encoding="UTF-8"?>
<svg version="1.1" xmlns="http://www.w3.org/2000/svg" width="256" height="256">
  <path d="M0 0 C13.03423843 9.84389344 18.44744362 23.67602268 23.63085938 38.6171875 C25.10131171 42.71422177 26.83812484 46.69055531 28.578125 50.6796875 C29.42578125 52.83203125 29.42578125 52.83203125 29.42578125 54.83203125 C30.66328125 55.03828125 31.90078125 55.24453125 33.17578125 55.45703125 C45.2183905 58.16898892 55.13532893 64.78487413 62.17578125 74.83203125 C71.08199132 89.87905282 72.0562739 109.82418943 69.42578125 126.83203125 C68.83152344 126.87690674 68.23726562 126.92178223 67.625 126.96801758 C64.89083012 127.18142528 62.15846143 127.41285543 59.42578125 127.64453125 C58.49121094 127.71478516 57.55664062 127.78503906 56.59375 127.85742188 C46.57406294 128.59562918 46.57406294 128.59562918 38.5703125 134.03125 C37.15126933 137.50378908 36.11054923 141.03539101 35.11328125 144.64453125 C31.8077928 155.71073171 26.62668878 162.06957169 16.42578125 167.83203125 C14.72763861 168.42458555 13.01906 168.98818659 11.30078125 169.51953125 C4.53423352 171.95888231 1.96742286 177.94733853 -1.57421875 183.83203125 C-7.15569484 191.87939757 -15.03975048 196.6991931 -24.57421875 198.83203125 C-37.51246648 200.03805933 -50.36102848 200.08864845 -60.88671875 191.64453125 C-65.38650214 187.34677895 -68.87740372 182.26322917 -71.6328125 176.69140625 C-76.2168397 167.89276063 -85.58868217 165.51700867 -94.44921875 162.39453125 C-99.99086803 160.27742212 -104.03153471 158.39045683 -106.57421875 152.83203125 C-107.93779161 147.51831435 -108.40305126 142.18115746 -108.80078125 136.72265625 C-109.08213273 129.67887032 -109.08213273 129.67887032 -112.57421875 123.83203125 C-118.4197554 121.26206663 -123.74323015 120.20648382 -130.07421875 119.64453125 C-131.30785156 119.52174805 -131.30785156 119.52174805 -132.56640625 119.39648438 C-134.5680765 119.19864487 -136.57103828 119.01394401 -138.57421875 118.83203125 C-140.78258564 103.1091757 -137.34244194 87.99514564 -128.19921875 74.9296875 C-121.28662665 66.00646164 -112.7252546 57.95320355 -101.28125 55.66015625 C-98.18396368 54.15758257 -97.73161003 50.27577758 -96.63208008 47.17578125 C-96.31005615 46.23734375 -95.98803223 45.29890625 -95.65625 44.33203125 C-82.15607806 5.48612428 -82.15607806 5.48612428 -63.57421875 -4.16796875 C-43.46868593 -12.78066945 -18.28435211 -12.56883828 0 0 Z " fill="#2F96C6" transform="translate(162.57421875,33.16796875)"/>
  <path d="M0 0 C13.03423843 9.84389344 18.44744362 23.67602268 23.63085938 38.6171875 C25.10131171 42.71422177 26.83812484 46.69055531 28.578125 50.6796875 C29.42578125 52.83203125 29.42578125 52.83203125 29.42578125 54.83203125 C30.66328125 55.03828125 31.90078125 55.24453125 33.17578125 55.45703125 C45.2183905 58.16898892 55.13532893 64.78487413 62.17578125 74.83203125 C71.08199132 89.87905282 72.0562739 109.82418943 69.42578125 126.83203125 C68.83152344 126.87690674 68.23726562 126.92178223 67.625 126.96801758 C64.89083012 127.18142528 62.15846143 127.41285543 59.42578125 127.64453125 C58.49121094 127.71478516 57.55664062 127.78503906 56.59375 127.85742188 C46.57406294 128.59562918 46.57406294 128.59562918 38.5703125 134.03125 C37.15126933 137.50378908 36.11054923 141.03539101 35.11328125 144.64453125 C31.8077928 155.71073171 26.62668878 162.06957169 16.42578125 167.83203125 C14.72763861 168.42458555 13.01906 168.98818659 11.30078125 169.51953125 C4.53423352 171.95888231 1.96742286 177.94733853 -1.57421875 183.83203125 C-7.15569484 191.87939757 -15.03975048 196.6991931 -24.57421875 198.83203125 C-37.51246648 200.03805933 -50.36102848 200.08864845 -60.88671875 191.64453125 C-65.38650214 187.34677895 -68.87740372 182.26322917 -71.6328125 176.69140625 C-76.2168397 167.89276063 -85.58868217 165.51700867 -94.44921875 162.39453125 C-99.99086803 160.27742212 -104.03153471 158.39045683 -106.57421875 152.83203125 C-107.93779161 147.51831435 -108.40305126 142.18115746 -108.80078125 136.72265625 C-109.08213273 129.67887032 -109.08213273 129.67887032 -112.57421875 123.83203125 C-118.4197554 121.26206663 -123.74323015 120.20648382 -130.07421875 119.64453125 C-131.30785156 119.52174805 -131.30785156 119.52174805 -132.56640625 119.39648438 C-134.5680765 119.19864487 -136.57103828 119.01394401 -138.57421875 118.83203125 C-140.78258564 103.1091757 -137.34244194 87.99514564 -128.19921875 74.9296875 C-121.28662665 66.00646164 -112.7252546 57.95320355 -101.28125 55.66015625 C-98.18396368 54.15758257 -97.73161003 50.27577758 -96.63208008 47.17578125 C-96.31005615 46.23734375 -95.98803223 45.29890625 -95.65625 44.33203125 C-82.15607806 5.48612428 -82.15607806 5.48612428 -63.57421875 -4.16796875 C-43.46868593 -12.78066945 -18.28435211 -12.56883828 0 0 Z M-64.57421875 16.83203125 C-71.71839927 25.24204958 -75.34976086 36.09825915 -78.82373047 46.42285156 C-82.46238941 57.19441838 -85.92983561 65.54002224 -96.57421875 70.83203125 C-97.22519531 71.11949219 -97.87617187 71.40695313 -98.546875 71.703125 C-108.3960911 76.10883797 -114.66920001 83.92181563 -118.57421875 93.83203125 C-119.94287797 97.60664932 -120.57421875 100.76255768 -120.57421875 104.83203125 C-119.70539063 105.0021875 -118.8365625 105.17234375 -117.94140625 105.34765625 C-108.39296669 107.35560551 -102.3978621 109.6474514 -96.57421875 117.83203125 C-93.55323254 124.65337358 -92.92764381 130.81444644 -92.578125 138.20507812 C-92.33036618 143.05273613 -92.33036618 143.05273613 -89.484375 146.7421875 C-86.65632126 147.80128413 -83.82389688 148.83144437 -80.953125 149.76953125 C-67.72534325 154.17045675 -60.62149149 161.51780106 -54.265625 173.6953125 C-51.50570501 179.12930039 -51.50570501 179.12930039 -46.3828125 182.05859375 C-38.42197923 183.67525528 -27.43518001 184.81838526 -20.234375 180.35546875 C-16.63702518 177.05437127 -14.17837456 172.92252127 -11.57421875 168.83203125 C-10.55019668 167.36125446 -9.50973538 165.90171462 -8.44921875 164.45703125 C-7.79566406 163.54824219 -7.79566406 163.54824219 -7.12890625 162.62109375 C-3.51434998 158.4616295 0.3027195 156.28300682 5.42578125 154.39453125 C12.82769404 151.41560193 16.08847448 148.03404302 19.42578125 140.83203125 C20.15795829 138.63810574 20.84567297 136.42884289 21.48828125 134.20703125 C23.44090998 127.47869611 24.7863111 124.09602087 30.42578125 119.83203125 C30.8434375 119.34089844 31.26109375 118.84976563 31.69140625 118.34375 C34.14309952 116.20680113 36.63122007 115.61728908 39.73828125 114.70703125 C40.84816406 114.37445313 41.95804688 114.041875 43.1015625 113.69921875 C46.2029899 112.89015073 49.25711342 112.30181861 52.42578125 111.83203125 C53.11302644 95.32167842 53.11302644 95.32167842 45.73828125 80.95703125 C41.13634757 76.20476217 36.76628267 73.8191979 30.46484375 71.95703125 C23.51975231 69.89922638 19.07036274 68.27671804 15.42578125 61.83203125 C12.31669301 55.57930935 9.87525786 49.08512685 7.48046875 42.53515625 C7.13999512 41.6136377 6.79952148 40.69211914 6.44873047 39.74267578 C5.78336636 37.93078928 5.13062787 36.11419923 4.49267578 34.29248047 C1.14341109 25.12671152 -5.13971112 15.16022485 -14.06640625 10.54296875 C-30.04300846 3.95321294 -51.69483584 3.92364072 -64.57421875 16.83203125 Z " fill="#010304" transform="translate(162.57421875,33.16796875)"/>
  <path d="M0 0 C3.53113683 1.02991491 4.12891912 1.80108141 6 4.875 C7.25190701 9.60530685 7.58066419 14.27906938 5.75 18.875 C4 21.875 4 21.875 1 23.875 C-2.36903859 23.73462339 -4.28818977 23.63959998 -6.6328125 21.12109375 C-9.2300868 16.85414311 -9.64245733 11.57826274 -8.4921875 6.73828125 C-6.72629591 2.30496393 -5.04151202 -0.210063 0 0 Z " fill="#040E12" transform="translate(137,72.125)"/>
  <path d="M0 0 C3.53113683 1.02991491 4.12891912 1.80108141 6 4.875 C7.25190701 9.60530685 7.58066419 14.27906938 5.75 18.875 C4 21.875 4 21.875 1 23.875 C-2.36903859 23.73462339 -4.28818977 23.63959998 -6.6328125 21.12109375 C-9.2300868 16.85414311 -9.64245733 11.57826274 -8.4921875 6.73828125 C-6.72629591 2.30496393 -5.04151202 -0.210063 0 0 Z " fill="#040E12" transform="translate(105,72.125)"/>
</svg>
