<svg width="2475" height="2477" xmlns="http://www.w3.org/2000/svg" xmlns:xlink="http://www.w3.org/1999/xlink" overflow="hidden">
  <path d="M2007.43 2209.44C1471.32 2633.34 693.078 2542.38 269.175 2006.27-154.728 1470.16-63.766 691.919 472.344 268.016 98.5594 897.212 305.612 1710.29 934.808 2084.07 1258.33 2276.27 1648.31 2321.85 2007.43 2209.44Z" fill="#969696" fill-rule="evenodd" fill-opacity="0.5"/>
  <path d="M356 916.5C356 806.319 445.319 717 555.5 717 665.681 717 755 806.319 755 916.5 755 1026.68 665.681 1116 555.5 1116 445.319 1116 356 1026.68 356 916.5Z" fill="#4D4D4D" fill-rule="evenodd" fill-opacity="0.5"/>
  <path d="M894 459C894 294.971 1026.97 162 1191 162 1355.03 162 1488 294.971 1488 459 1488 623.028 1355.03 756 1191 756 1026.97 756 894 623.028 894 459Z" fill="#4D4D4D" fill-rule="evenodd" fill-opacity="0.5"/>
  <path d="M1373 2057.5C1373 1974.93 1439.93 1908 1522.5 1908 1605.07 1908 1672 1974.93 1672 2057.5 1672 2140.07 1605.07 2207 1522.5 2207 1439.93 2207 1373 2140.07 1373 2057.5Z" fill="#4D4D4D" fill-rule="evenodd" fill-opacity="0.5"/>
  <path d="M1696 1963C1696 1932.62 1720.62 1908 1751 1908 1781.38 1908 1806 1932.62 1806 1963 1806 1993.38 1781.38 2018 1751 2018 1720.62 2018 1696 1993.38 1696 1963Z" fill="#4D4D4D" fill-rule="evenodd" fill-opacity="0.5"/>
</svg>