<svg xmlns="http://www.w3.org/2000/svg" width="1452" height="1452" fill="#000">
  <path d="M1060.36 205.073C1348.06 389.735 1431.59 772.659 1246.93 1060.36 1062.27 1348.06 679.341 1431.59 391.641 1246.93 103.94 1062.27 20.4111 679.341 205.073 391.641 253.269 316.552 317.128 252.771 392.276 204.666L457.232 306.139C225.348 454.575 157.701 762.886 306.138 994.769 454.575 1226.65 762.885 1294.3 994.769 1145.86 1226.65 997.426 1294.3 689.116 1145.86 457.232 1107.12 396.712 1055.75 345.282 995.28 306.466Z"/>
  <path d="M912 6.10352e-05 778.497 687 673.503 687 540 6.10352e-05Z"/>
</svg>